<svg width="31" height="31" viewBox="0 0 31 31" fill="none" xmlns="http://www.w3.org/2000/svg">
<g opacity="0.8">
<path d="M15.437 4.51257C23.1767 4.51257 29.5092 9.55043 29.5092 15.7704C29.5092 21.9903 23.1767 27.0281 15.437 27.0281C13.692 27.0281 12.0174 26.7748 10.4695 26.3245C6.36038 29.8426 1.36475 29.8426 1.36475 29.8426C4.64357 26.5637 5.16424 24.3544 5.23461 23.5101C2.84233 21.4977 1.36475 18.7677 1.36475 15.7704C1.36475 9.55043 7.69724 4.51257 15.437 4.51257ZM22.4731 17.1776V14.3631H19.6586V17.1776H22.4731ZM16.8442 17.1776V14.3631H14.0297V17.1776H16.8442ZM11.2153 17.1776V14.3631H8.40085V17.1776H11.2153Z" fill="black"/>
</g>
</svg>
