<svg width="25" height="25" viewBox="0 0 25 25" fill="none" xmlns="http://www.w3.org/2000/svg">
<path fill-rule="evenodd" clip-rule="evenodd" d="M12.2539 0.75293C11.8747 0.752888 11.4998 0.819555 11.1548 0.948413C10.8098 1.07727 10.5026 1.26531 10.2542 1.49978C10.0058 1.73425 9.82183 2.00968 9.71488 2.3074C9.60793 2.60511 9.58045 2.91816 9.63431 3.22533C7.71672 3.68856 6.03374 4.64688 4.83668 5.95717C3.63963 7.26747 2.99275 8.85944 2.99264 10.4953V19.1552H1.6696C1.31871 19.1552 0.982186 19.2693 0.734067 19.4723C0.485949 19.6753 0.346558 19.9506 0.346558 20.2377C0.346558 20.5248 0.485949 20.8001 0.734067 21.0032C0.982186 21.2062 1.31871 21.3202 1.6696 21.3202H22.8383C23.1891 21.3202 23.5257 21.2062 23.7738 21.0032C24.0219 20.8001 24.1613 20.5248 24.1613 20.2377C24.1613 19.9506 24.0219 19.6753 23.7738 19.4723C23.5257 19.2693 23.1891 19.1552 22.8383 19.1552H21.5152V10.4953C21.5151 8.85944 20.8682 7.26747 19.6712 5.95717C18.4741 4.64688 16.7911 3.68856 14.8735 3.22533C14.9274 2.91816 14.8999 2.60511 14.793 2.3074C14.686 2.00968 14.5021 1.73425 14.2537 1.49978C14.0052 1.26531 13.6981 1.07727 13.3531 0.948413C13.008 0.819555 12.6332 0.752888 12.2539 0.75293ZM14.9 23.4852C14.9 23.7723 14.7606 24.0476 14.5125 24.2506C14.2644 24.4536 13.9279 24.5677 13.577 24.5677H10.9309C10.58 24.5677 10.2435 24.4536 9.99535 24.2506C9.74724 24.0476 9.60784 23.7723 9.60784 23.4852C9.60784 23.1981 9.74724 22.9227 9.99535 22.7197C10.2435 22.5167 10.58 22.4027 10.9309 22.4027H13.577C13.9279 22.4027 14.2644 22.5167 14.5125 22.7197C14.7606 22.9227 14.9 23.1981 14.9 23.4852Z" fill="black" fill-opacity="0.8"/>
</svg>
