<svg width="21" height="20" viewBox="0 0 21 20" fill="none" xmlns="http://www.w3.org/2000/svg">
<g clip-path="url(#clip0_405_5304)">
<path d="M10.8535 7.5C9.47018 7.5 8.35352 8.61667 8.35352 10C8.35352 11.3833 9.47018 12.5 10.8535 12.5C12.2368 12.5 13.3535 11.3833 13.3535 10C13.3535 8.61667 12.2368 7.5 10.8535 7.5ZM3.35352 7.5C4.73685 7.5 5.85352 8.61667 5.85352 10C5.85352 11.3833 4.73685 12.5 3.35352 12.5C1.97018 12.5 0.853516 11.3833 0.853516 10C0.853516 8.61667 1.97018 7.5 3.35352 7.5ZM18.3535 7.5C19.7368 7.5 20.8535 8.61667 20.8535 10C20.8535 11.3833 19.7368 12.5 18.3535 12.5C16.9702 12.5 15.8535 11.3833 15.8535 10C15.8535 8.61667 16.9702 7.5 18.3535 7.5Z" fill="#111111"/>
</g>
<defs>
<clipPath id="clip0_405_5304">
<rect width="20" height="20" fill="white" transform="translate(0.853516)"/>
</clipPath>
</defs>
</svg>
