<svg width="14" height="13" viewBox="0 0 14 13" fill="none" xmlns="http://www.w3.org/2000/svg">
<path opacity="0.54" d="M13.2 10.7964L10.7685 8.36498C10.6588 8.25524 10.51 8.19427 10.3539 8.19427H9.95638C10.6295 7.33338 11.0294 6.25057 11.0294 5.07264C11.0294 2.2705 8.75895 0 5.9568 0C3.15465 0 0.884155 2.2705 0.884155 5.07264C0.884155 7.87479 3.15465 10.1453 5.9568 10.1453C7.13473 10.1453 8.21754 9.74533 9.07843 9.07223V9.46975C9.07843 9.62583 9.1394 9.77459 9.24914 9.88434L11.6806 12.3158C11.9098 12.545 12.2805 12.545 12.5073 12.3158L13.1975 11.6256C13.4268 11.3964 13.4268 11.0257 13.2 10.7964ZM5.9568 8.19427C4.23259 8.19427 2.83517 6.79929 2.83517 5.07264C2.83517 3.34843 4.23015 1.95102 5.9568 1.95102C7.68101 1.95102 9.07843 3.34599 9.07843 5.07264C9.07843 6.79685 7.68345 8.19427 5.9568 8.19427Z" fill="black"/>
</svg>
