<svg width="21" height="20" viewBox="0 0 21 20" fill="none" xmlns="http://www.w3.org/2000/svg">
<path d="M17.5876 11.6667C18.5042 11.6667 19.2542 12.4167 19.2542 13.3333V18.3333C19.2542 19.25 18.5042 20 17.5876 20H2.58756C1.6709 20 0.920898 19.25 0.920898 18.3333V13.3333C0.920898 12.4167 1.6709 11.6667 2.58756 11.6667C3.50423 11.6667 4.25423 12.4167 4.25423 13.3333V16.6667H15.9209V13.3333C15.9209 12.4167 16.6709 11.6667 17.5876 11.6667ZM7.43756 7.36667C6.78756 8.01667 5.72923 8.025 5.07923 7.36667C4.42923 6.71667 4.4209 5.66667 5.0709 5.01667L10.0792 0L15.0959 5.00833C15.7459 5.65833 15.7542 6.71667 15.1042 7.36667C14.4542 8.01667 13.3959 8.025 12.7459 7.36667L11.7459 6.375V11.525C11.7459 11.967 11.5703 12.391 11.2577 12.7035C10.9452 13.0161 10.5213 13.1917 10.0792 13.1917C9.6372 13.1917 9.21328 13.0161 8.90072 12.7035C8.58816 12.391 8.41256 11.967 8.41256 11.525V6.38333L7.43756 7.36667Z" fill="#111111"/>
</svg>
